<svg width="110" height="50" viewBox="0 0 110 50" fill="none" xmlns="http://www.w3.org/2000/svg">
<path d="M5.592 16.688V12.464H7.824C9.456 12.464 10.152 13.28 10.152 14.576C10.152 15.872 9.456 16.688 7.824 16.688H5.592ZM14.328 14.576C14.328 11.48 12.264 9.152 8.136 9.152H1.488V26H5.592V19.952H8.136C12.432 19.952 14.328 17.36 14.328 14.576ZM16.4646 26H20.5686V12.608H16.4646V26ZM18.5286 11.216C19.9686 11.216 20.9526 10.232 20.9526 9.008C20.9526 7.76 19.9686 6.776 18.5286 6.776C17.0646 6.776 16.0806 7.76 16.0806 9.008C16.0806 10.232 17.0646 11.216 18.5286 11.216ZM33.0707 12.608H22.8467V15.992H28.3667L22.7987 22.736V26H33.1907V22.616H27.3827L33.0707 15.872V12.608ZM44.9769 12.608H34.7529V15.992H40.2729L34.7049 22.736V26H45.0969V22.616H39.2889L44.9769 15.872V12.608ZM46.5392 19.28C46.5392 23.504 49.1552 26.192 52.4192 26.192C54.4112 26.192 55.8272 25.28 56.5712 24.104V26H60.6752V12.608H56.5712V14.504C55.8512 13.328 54.4352 12.416 52.4432 12.416C49.1552 12.416 46.5392 15.056 46.5392 19.28ZM56.5712 19.304C56.5712 21.44 55.2032 22.616 53.6432 22.616C52.1072 22.616 50.7152 21.416 50.7152 19.28C50.7152 17.144 52.1072 15.992 53.6432 15.992C55.2032 15.992 56.5712 17.168 56.5712 19.304ZM79.2182 26H83.3222V9.152H79.2182V15.752H72.8342V9.152H68.7302V26H72.8342V19.064H79.2182V26ZM99.3889 19.304C99.3889 15.056 96.3649 12.416 92.4289 12.416C88.5169 12.416 85.4689 15.056 85.4689 19.304C85.4689 23.552 88.4449 26.192 92.3809 26.192C96.3169 26.192 99.3889 23.552 99.3889 19.304ZM89.6449 19.304C89.6449 17.024 90.9409 15.968 92.4289 15.968C93.8689 15.968 95.2129 17.024 95.2129 19.304C95.2129 21.56 93.8449 22.64 92.3809 22.64C90.8929 22.64 89.6449 21.56 89.6449 19.304ZM102.214 21.344C102.214 24.824 104.158 26 106.942 26H109.03V22.52H107.566C106.654 22.52 106.318 22.184 106.318 21.392V16.016H109.006V12.608H106.318V9.344H102.214V12.608H100.582V16.016H102.214V21.344Z" fill="url(#paint0_linear)"/>
<path d="M5.85 30.364H1.116V43H5.85C9.882 43 12.474 40.426 12.474 36.682C12.474 32.92 9.882 30.364 5.85 30.364ZM4.194 40.336V32.992H5.652C7.974 32.992 9.342 34.36 9.342 36.682C9.342 39.004 7.974 40.336 5.652 40.336H4.194ZM18.6221 35.278C19.6481 35.278 20.5121 35.908 20.5121 37.006H16.6601C16.8401 35.89 17.6141 35.278 18.6221 35.278ZM23.4281 39.67H20.1521C19.9001 40.21 19.4141 40.642 18.5501 40.642C17.5601 40.642 16.7501 40.03 16.6421 38.716H23.6081C23.6441 38.41 23.6621 38.104 23.6621 37.816C23.6621 34.756 21.5921 32.812 18.6581 32.812C15.6701 32.812 13.5821 34.792 13.5821 37.978C13.5821 41.164 15.7061 43.144 18.6581 43.144C21.1601 43.144 22.9421 41.632 23.4281 39.67ZM25.2859 43H28.3639V29.68H25.2859V43ZM30.5945 43H33.6725V32.956H30.5945V43ZM32.1425 31.912C33.2225 31.912 33.9605 31.174 33.9605 30.256C33.9605 29.32 33.2225 28.582 32.1425 28.582C31.0445 28.582 30.3065 29.32 30.3065 30.256C30.3065 31.174 31.0445 31.912 32.1425 31.912ZM34.9491 32.956L38.5131 43H42.3111L45.8751 32.956H42.5991L40.4211 40.12L38.2431 32.956H34.9491ZM51.5987 35.278C52.6247 35.278 53.4887 35.908 53.4887 37.006H49.6367C49.8167 35.89 50.5907 35.278 51.5987 35.278ZM56.4047 39.67H53.1287C52.8767 40.21 52.3907 40.642 51.5267 40.642C50.5367 40.642 49.7267 40.03 49.6187 38.716H56.5847C56.6207 38.41 56.6387 38.104 56.6387 37.816C56.6387 34.756 54.5687 32.812 51.6347 32.812C48.6467 32.812 46.5587 34.792 46.5587 37.978C46.5587 41.164 48.6827 43.144 51.6347 43.144C54.1367 43.144 55.9187 41.632 56.4047 39.67ZM61.3405 38.338C61.3405 36.61 62.1865 36.106 63.6445 36.106H64.4905V32.848C63.1405 32.848 62.0425 33.568 61.3405 34.63V32.956H58.2625V43H61.3405V38.338ZM70.5877 39.238L68.2657 32.956H64.8277L68.9137 42.658L66.6097 47.77H69.9217L76.2217 32.956H72.8917L70.5877 39.238ZM80.5928 41.488C80.5928 40.534 79.8548 39.796 78.7748 39.796C77.6768 39.796 76.9388 40.534 76.9388 41.488C76.9388 42.406 77.6768 43.144 78.7748 43.144C79.8548 43.144 80.5928 42.406 80.5928 41.488Z" fill="#B42323"/>
<defs>
<linearGradient id="paint0_linear" x1="55" y1="0" x2="55" y2="36" gradientUnits="userSpaceOnUse">
<stop stop-color="#B42323"/>
<stop offset="0.9998" stop-color="#E58F31"/>
<stop offset="0.9999" stop-color="#EFA434"/>
<stop offset="1" stop-color="#B42323" stop-opacity="0"/>
<stop offset="1" stop-color="#EFA434"/>
</linearGradient>
</defs>
</svg>
